<svg width="122" height="25" viewBox="0 0 122 25" fill="none" xmlns="http://www.w3.org/2000/svg">
<path d="M12.3341 5.35156C12.3341 4.3457 13.1313 3.98437 14.0238 3.98437C14.9162 3.98437 15.8694 4.29688 15.8694 4.29688L16.4412 0.468749C16.4412 0.468749 15.2282 0 12.3341 0C10.5578 0 9.52674 0.761718 8.7729 1.88476C8.06239 2.94922 8.0364 4.6582 8.0364 5.76172V8.27149H5.74023V12.0117H8.0364V25H12.3341V12.0117H15.7394L15.9907 8.27149H12.3341V5.35156Z" fill="#3B5998"/>
<g clip-path="url(#clip0_1_1368)">
<path d="M55.4548 4.73868C54.6415 5.1482 53.7591 5.42121 52.8421 5.54797C53.7851 4.91419 54.5031 3.9099 54.8405 2.7106C53.9581 3.29562 52.9892 3.72464 51.951 3.95865C51.1205 2.96411 49.9353 2.34009 48.6289 2.34009C46.1201 2.34009 44.0784 4.64118 44.0784 7.46879C44.0784 7.86856 44.113 8.25858 44.1995 8.63884C40.4189 8.42433 37.0622 6.3865 34.8215 3.27613C34.4322 4.03666 34.2073 4.91419 34.2073 5.85998C34.2073 7.63455 35.0119 9.20436 36.2317 10.1306C35.4877 10.1014 34.7869 9.86739 34.1727 9.48712V9.54563C34.1727 12.032 35.7386 14.1088 37.8235 14.5768C37.4429 14.6938 37.0362 14.7621 36.621 14.7621C36.3268 14.7621 36.0414 14.7328 35.7645 14.6743C36.3441 16.7122 38.0225 18.1942 40.0123 18.2332C38.4551 19.608 36.4912 20.4271 34.363 20.4271C33.9997 20.4271 33.6363 20.4076 33.2729 20.3588C35.2887 21.8116 37.6764 22.6599 40.2459 22.6599C48.6203 22.6599 53.1968 14.8401 53.1968 8.06357C53.1968 7.83931 53.1968 7.61505 53.1881 7.40054C54.0792 6.66926 54.8492 5.77223 55.4548 4.73868Z" fill="#00ACEE"/>
</g>
<path d="M78.0528 11.4437V14.6507H84.855C84.7427 16.2195 84.1743 17.6179 83.3002 18.6976L83.3044 18.6921C82.0393 20.1453 80.2793 21.0453 78.3329 21.0453C78.2344 21.0453 78.1367 21.0429 78.0389 21.0382L78.0528 21.039C73.9312 21.0367 70.5907 17.271 70.5907 12.625C70.5907 12.5851 70.5907 12.5453 70.5914 12.5062V12.5125C70.5907 12.4789 70.5907 12.439 70.5907 12.3992C70.5907 7.75386 73.9312 3.98745 78.0528 3.98511C78.0805 3.98433 78.1131 3.98433 78.1464 3.98433C80.1026 3.98433 81.8778 4.86011 83.1803 6.28198L83.1782 6.27964L85.1801 4.02339C83.4 2.00933 80.9371 0.762451 78.2157 0.762451C78.1589 0.762451 78.102 0.763232 78.0452 0.764014H78.0535C78.0521 0.764014 78.05 0.764014 78.048 0.764014C72.2689 0.764014 67.574 5.99761 67.4922 12.4898V12.4984C67.574 18.9984 72.2689 24.2328 78.048 24.2328C78.05 24.2328 78.0521 24.2328 78.0542 24.2328C78.1713 24.2382 78.3086 24.2421 78.4465 24.2421C81.1444 24.2421 83.5809 22.9796 85.316 20.9507L85.3187 20.9476C86.8493 19.0664 87.7872 16.5492 87.7872 13.7843C87.7872 13.6671 87.7858 13.55 87.7823 13.4335L87.783 13.4507C87.7837 13.4085 87.7837 13.3578 87.7837 13.3078C87.7837 12.6484 87.7289 12.0039 87.6236 11.3789L87.6326 11.4429L78.0528 11.4437Z" fill="#EA4335"/>
<g clip-path="url(#clip1_1_1368)">
<path fill-rule="evenodd" clip-rule="evenodd" d="M122 23.8636H117.098V15.8741C117.098 13.7828 116.331 12.3552 114.645 12.3552C113.355 12.3552 112.637 13.3186 112.303 14.2471C112.178 14.5803 112.198 15.0446 112.198 15.5088V23.8636H107.341C107.341 23.8636 107.404 9.71093 107.341 8.42445H112.198V10.8475C112.485 9.78806 114.037 8.27601 116.513 8.27601C119.586 8.27601 122 10.4968 122 15.2789V23.8636ZM102.429 6.49328H102.398C100.833 6.49328 99.8184 5.31303 99.8184 3.81699C99.8184 2.29185 100.863 1.13635 102.459 1.13635C104.054 1.13635 105.035 2.28895 105.066 3.81264C105.066 5.30868 104.054 6.49328 102.429 6.49328ZM100.378 8.42445H104.701V23.8636H100.378V8.42445Z" fill="#007EBB"/>
</g>
<defs>
<clipPath id="clip0_1_1368">
<rect width="22.1818" height="25" fill="white" transform="translate(33.2729)"/>
</clipPath>
<clipPath id="clip1_1_1368">
<rect width="22.1818" height="25" fill="white" transform="translate(99.8184)"/>
</clipPath>
</defs>
</svg>
